   <svg
      xmlns="http://www.w3.org/2000/svg"
      width="45"
      height="45"
      fill="none"
      viewBox="0 0 45 45"
    >
      <mask
        id="mask0_4956_2821"
        style="mask-type: alpha"
        width="45"
        height="45"
        x="0"
        y="0"
        maskUnits="userSpaceOnUse"
      >
        <path fill="#D9D9D9" d="M0 0H45V45H0z" />
      </mask>
      <g strokeWidth="0.5" mask="url(#mask0_4956_2821)">
        <path
          fill="#EB3438"
          stroke="#EB3438"
          d="M41.074 12.783c-.407.242-.783.539-1.163.824a.676.676 0 01-.5.137c-.604-.051-1.211-.067-1.814-.126-.346-.034-.579.104-.803.364l1.759.658c-.368.282-.724.5-1.01.788-.428.43-.875.568-1.437.299-.288-.138-.438.122-.568.28-.147.177.117.23.202.334.097.118.208.226.32.33.23.216.418.398.784.127.594-.438 1.25-.794 1.937-1.22l-.179 2.435c.41-.163.652-.384.791-.774.306-.855.673-1.688 1.007-2.533.071-.18.193-.289.355-.385.737-.438 1.495-.855 1.95-1.629v-.23c-.585-.1-1.135.026-1.63.32z"
        />
        <path
          fill="#1186C7"
          stroke="#1186C7"
          d="M24.708 20.089c.645-.292 1.296-.57 1.95-.84.207-.085.255-.151.085-.337-.549-.599-.942-1.27-.896-2.119.014-.072.032-.145.033-.218.088-.511.25-.996.582-1.417.46-.402.965-.705 1.586-.795.582-.085.58-.095.57.475L28.4 16.69l-.017.222h0l.005.002c-.16.523-.122 1.069-.212 1.612 1.05-.237 1.218-.395 1.238-1.14.14-.68.196-1.369.23-2.06 0 0 0 0 0 0 .043-.251.108-.502.12-.755.014-.262.123-.278.345-.232.902.188 1.513.722 1.909 1.528.037.377.07.756.114 1.133.017.14.063.287.243.29.159.004.209-.125.242-.251a3.811 3.811 0 00.128-1.015c.134-.56.151-1.133.194-1.703.024-.333-.181-.518-.48-.605-.616-.18-1.239-.336-1.88-.398-.64-.06-.64-.053-.63-.688a.767.767 0 00.032-.124c.099-.418.127-.848.184-1.272.016-.118.02-.23-.162-.234-.672-.012-1.012.28-1.072.935-.006.064-.003.128-.004.192-.086.152-.068.318-.061.482l-.004.08c-.006.473-.221.603-.716.653-1.19.118-2.298.513-3.173 1.388 0 0 0 0 0 0-.747.639-1.27 1.398-1.315 2.415-.113 1.017.027 1.973.648 2.83.127.176.211.2.401.114zM11.127 24.853c.438-.063.825-.179.794-.742-.001-.028.044-.058.068-.088 0 0 0 0 0 0 .055-.043.072-.1.07-.167l.154-.468s0 0 0 0h0c.164-.369.316-.741.39-1.14 0 0 0 0 0 0 .108-.218.196-.443.241-.683.229-.5.387-1.026.534-1.555.095-.142.147-.299.167-.468.097-.218.21-.43.23-.675.154-.263.224-.557.309-.846l.136-.026.299.792c.06.318.184.614.319.906v0c.062.323.16.635.308.93 0 0 0 0 0 0 .082.4.235.774.389 1.148.128.43.263.859.383 1.291.063.23.194.122.318.085a.895.895 0 00.413-.14s0 0 0 0c.618-.196 1.233-.4 1.854-.583.28-.082.488-.168.277-.5a4.649 4.649 0 00-.375-1.005 5.473 5.473 0 00-.46-1.235 3.634 3.634 0 00-.323-.917c-.012-.316-.265-.543-.315-.845-.065-.357-.235-.674-.374-1.003-.057-.325-.195-.62-.329-.918l-.122-.32c-.005-.085-.02-.166-.092-.224v-.002c-.014-.227-.126-.42-.219-.62l-.4-1.073c-.16-.48-.312-.967-.586-1.399-.205-.323-.514-.324-.69.004-.173.322-.351.648-.422 1.015l-.462 1.23c-.088.229-.218.441-.24.691-.066.123-.15.239-.15.386-.165.2-.18.453-.241.69a3.845 3.845 0 00-.376 1l-.384 1.002c-.098.225-.202.448-.241.693-.174.343-.308.7-.392 1.076a2.24 2.24 0 00-.243.61c-.143.354-.297.705-.381 1.08-.166.293-.264.612-.359.932l-.168.458c-.085.078-.095.187-.122.29l-.417 1.167-.264.672c.557-.138 1.024-.326 1.494-.506zm-.139-1.55c-.018-.041.028 0 .01.014l-.008-.001a.02.02 0 00-.002-.012z"
        />
        <path
          fill="#EB3438"
          stroke="#EB3438"
          d="M34.642 17.861c-.335.18-.668.364-1.004.544-3.261 1.75-6.522 3.5-9.914 4.996-1.496.66-2.988 1.322-4.541 1.839a75.571 75.571 0 01-5.365 1.59 54.381 54.381 0 01-3.787.815.052.052 0 00-.066.008 4.76 4.76 0 00-1.028.141l-.288.018c-.257.01-.514.02-.771.027-.647.017-1.29-.006-1.915-.197-.984-.302-1.312-.916-1.01-1.886.312-1.005 1.003-1.748 1.748-2.444.554-.518 1.144-1 1.717-1.497.007 0 .013-.01.02-.032.005-.02-.002-.04-.024-.06a23.444 23.444 0 00-4.19 2.707c-.732.59-1.399 1.247-1.869 2.077-.622 1.097-.42 2.183.55 2.8.424.272.89.46 1.384.571 1.178.264 2.37.339 3.574.273.094-.005.394-.145.263.167-.386.92-.685 1.878-1.181 2.75-.404.71-.976 1.182-1.834 1.229-.245.013-.488.035-.733.046-.144.007-.264.047-.267.21-.003.155.108.226.248.244.102.014.206.01.31.008 1.262-.021 2.526-.055 3.789-.062.683-.003 1.365.043 2.049.06.148.005.318.04.4-.146.076-.086.081-.164-.024-.23-.247-.163-.523-.07-.785-.081-.788-.037-1.07-.37-.953-1.135.14-.923.59-1.743.859-2.622.148-.486.388-.692.921-.764 2.099-.283 4.142-.818 6.142-1.51.175-.061.296-.098.384.137.657 1.764 1.33 3.522 1.992 5.285.11.294-.004.502-.311.587-.136.038-.32.046-.279.237.034.162.215.16.356.167 2.05.11 4.102.079 6.153.067.2-.001.527.022.52-.263-.008-.286-.32-.179-.508-.187-.803-.038-1.57-.153-2.11-.841a6.625 6.625 0 01-.753-1.159c-.768-1.565-1.376-3.198-2.035-4.808-.22-.541-.318-.42.274-.668 1.829-.77 3.569-1.706 5.266-2.726.678-.408.672-.4 1.31.067.21.154.288.297.245.57-.09.569-.12 1.146-.175 1.719l-.016.212a17.727 17.727 0 00-.222 2.095l-.01.137c-.068.127-.07.264-.06.402l-.017.214c-.071.531-.159 1.061-.206 1.595-.02.23-.076.312-.32.282-1.446-.176-2.998-1.4-2.837-3.191a3.023 3.023 0 00-.001-.46c-.006-.089-.035-.187-.144-.202-.101-.015-.165.056-.211.138-.044.078-.106.154-.123.238-.155.763-.354 1.52-.33 2.31-.044.382-.1.766.002 1.149-.006.247.171.355.357.445.913.439 1.895.57 2.893.63l.363.018s0 0 0 0l.242.07.002.128c-.129.42-.12.86-.19 1.288-.147.903-.146.894.74.683.243-.058.347-.174.367-.408.028-.332.08-.662.104-.993.05-.693.046-.693.695-.793.109.01.217.014.314-.05 1.321-.217 2.425-.808 3.276-1.852 1.34-1.645 1.264-4.534-.212-6.281-.695-.823-1.52-1.49-2.405-2.094-.11-.075-.32-.133-.066-.315 1.306-.935 2.61-1.875 3.905-2.825.5-.366.974-.765 1.49-1.173-.087-.024-.118-.043-.134-.035zM27.116 29.65s0 0 0 0v0zm3.355-2.617c.73 1.439.157 3.324-1.256 4.104-.273.151-.57.233-.877.285-.221.037-.314.017-.282-.264.173-1.502.319-3.008.47-4.512.016-.152.013-.306.018-.46l.017-.21c.112-.238.034-.506.136-.815.744.507 1.371 1.077 1.774 1.872z"
        />
      </g>
    </svg>